{
  "accessors": [
    {
      "name": "1Newplan_1_0_positions",
      "componentType": 5126,
      "count": 990,
      "min": [
        -3.4616000652313232,
        -91.96659851074219,
        -1.9644999504089355
      ],
      "max": [
        86.79910278320312,
        227.6591033935547,
        225.93310546875
      ],
      "type": "VEC3",
      "bufferView": 0,
      "byteOffset": 0
    },
    {
      "name": "1Newplan_1_0_indices",
      "componentType": 5123,
      "count": 2970,
      "min": [
        0
      ],
      "max": [
        989
      ],
      "type": "SCALAR",
      "bufferView": 1,
      "byteOffset": 0
    },
    {
      "name": "1Newplan_1_1_positions",
      "componentType": 5126,
      "count": 2176,
      "min": [
        -95.25810241699219,
        -149.65260314941406,
        -23.190900802612305
      ],
      "max": [
        158.88319396972656,
        260.7471923828125,
        284.67840576171875
      ],
      "type": "VEC3",
      "bufferView": 0,
      "byteOffset": 11880
    },
    {
      "name": "1Newplan_1_1_indices",
      "componentType": 5123,
      "count": 12288,
      "min": [
        0
      ],
      "max": [
        2175
      ],
      "type": "SCALAR",
      "bufferView": 1,
      "byteOffset": 5940
    },
    {
      "name": "1Newplan_1_2_positions",
      "componentType": 5126,
      "count": 7680,
      "min": [
        -93.29350280761719,
        -256.4617919921875,
        -147.36839294433594
      ],
      "max": [
        228.28829956054688,
        388.5343017578125,
        362.73040771484375
      ],
      "type": "VEC3",
      "bufferView": 0,
      "byteOffset": 37992
    },
    {
      "name": "1Newplan_1_2_indices",
      "componentType": 5123,
      "count": 23040,
      "min": [
        0
      ],
      "max": [
        7679
      ],
      "type": "SCALAR",
      "bufferView": 1,
      "byteOffset": 30516
    },
    {
      "name": "1Newplan_1_3_positions",
      "componentType": 5126,
      "count": 3808,
      "min": [
        -207.37449645996094,
        -378.57769775390625,
        -264.1966857910156
      ],
      "max": [
        350.3982849121094,
        497.4815979003906,
        485.6473083496094
      ],
      "type": "VEC3",
      "bufferView": 0,
      "byteOffset": 130152
    },
    {
      "name": "1Newplan_1_3_indices",
      "componentType": 5123,
      "count": 21504,
      "min": [
        0
      ],
      "max": [
        3807
      ],
      "type": "SCALAR",
      "bufferView": 1,
      "byteOffset": 76596
    },
    {
      "name": "1Newplan_1_4_positions",
      "componentType": 5126,
      "count": 240,
      "min": [
        -3.791599988937378,
        -162.1855926513672,
        -76.31400299072266
      ],
      "max": [
        98.96369934082031,
        119.71070098876953,
        138.3834991455078
      ],
      "type": "VEC3",
      "bufferView": 0,
      "byteOffset": 175848
    },
    {
      "name": "1Newplan_1_4_indices",
      "componentType": 5123,
      "count": 720,
      "min": [
        0
      ],
      "max": [
        239
      ],
      "type": "SCALAR",
      "bufferView": 1,
      "byteOffset": 119604
    },
    {
      "name": "1Newplan_1_5_positions",
      "componentType": 5126,
      "count": 2160,
      "min": [
        -10.303600311279297,
        -178.55479431152344,
        -91.27059936523438
      ],
      "max": [
        109.97239685058594,
        135.18299865722656,
        149.95309448242188
      ],
      "type": "VEC3",
      "bufferView": 0,
      "byteOffset": 178728
    },
    {
      "name": "1Newplan_1_5_indices",
      "componentType": 5123,
      "count": 6480,
      "min": [
        0
      ],
      "max": [
        2159
      ],
      "type": "SCALAR",
      "bufferView": 1,
      "byteOffset": 121044
    },
    {
      "name": "1Newplan_1_6_positions",
      "componentType": 5126,
      "count": 1200,
      "min": [
        -44.108001708984375,
        -218.4897003173828,
        -134.9167022705078
      ],
      "max": [
        148.747802734375,
        171.21670532226562,
        192.58399963378906
      ],
      "type": "VEC3",
      "bufferView": 0,
      "byteOffset": 204648
    },
    {
      "name": "1Newplan_1_6_indices",
      "componentType": 5123,
      "count": 3600,
      "min": [
        0
      ],
      "max": [
        1199
      ],
      "type": "SCALAR",
      "bufferView": 1,
      "byteOffset": 134004
    },
    {
      "name": "1Newplan_1_7_positions",
      "componentType": 5126,
      "count": 3360,
      "min": [
        -65.87429809570312,
        -250.24459838867188,
        -158.923095703125
      ],
      "max": [
        172.6136016845703,
        196.622802734375,
        218.4508056640625
      ],
      "type": "VEC3",
      "bufferView": 0,
      "byteOffset": 219048
    },
    {
      "name": "1Newplan_1_7_indices",
      "componentType": 5123,
      "count": 27360,
      "min": [
        0
      ],
      "max": [
        3359
      ],
      "type": "SCALAR",
      "bufferView": 1,
      "byteOffset": 141204
    }
  ],
  "asset": {
    "generator": "obj2gltf",
    "version": "2.0"
  },
  "buffers": [
    {
      "name": "plants1",
      "byteLength": 455292,
      "uri": "data:application/octet-stream;base64,"
    }
  ],
  "bufferViews": [
    {
      "name": "bufferView_0",
      "buffer": 0,
      "byteLength": 259368,
      "byteOffset": 0,
      "byteStride": 12,
      "target": 34962
    },
    {
      "name": "bufferView_1",
      "buffer": 0,
      "byteLength": 195924,
      "byteOffset": 259368,
      "target": 34963
    }
  ],
  "materials": [
    {
      "name": "1Newplan_Intrnd",
      "pbrMetallicRoughness": {
        "baseColorFactor": [
          0.196,
          0.3921,
          0.196,
          1
        ],
        "metallicFactor": 0,
        "roughnessFactor": 1
      },
      "emissiveFactor": [
        0,
        0,
        0
      ],
      "alphaMode": "OPAQUE",
      "doubleSided": false
    },
    {
      "name": "1Newplan_Stipule",
      "pbrMetallicRoughness": {
        "baseColorFactor": [
          0.1764,
          0.4901,
          0.1764,
          1
        ],
        "metallicFactor": 0,
        "roughnessFactor": 1
      },
      "emissiveFactor": [
        0,
        0,
        0
      ],
      "alphaMode": "OPAQUE",
      "doubleSided": false
    },
    {
      "name": "1Newplan_Petiole",
      "pbrMetallicRoughness": {
        "baseColorFactor": [
          0.2745,
          0.2862,
          0.2117,
          1
        ],
        "metallicFactor": 0,
        "roughnessFactor": 1
      },
      "emissiveFactor": [
        0,
        0,
        0
      ],
      "alphaMode": "OPAQUE",
      "doubleSided": false
    },
    {
      "name": "1Newplan_Leaf",
      "pbrMetallicRoughness": {
        "baseColorFactor": [
          0.01176,
          0.5294,
          0.01176,
          1
        ],
        "metallicFactor": 0,
        "roughnessFactor": 1
      },
      "emissiveFactor": [
        0,
        0,
        0
      ],
      "alphaMode": "OPAQUE",
      "doubleSided": false
    },
    {
      "name": "1Newplan_1Pdncle",
      "pbrMetallicRoughness": {
        "baseColorFactor": [
          0.196,
          0.3921,
          0.196,
          1
        ],
        "metallicFactor": 0,
        "roughnessFactor": 1
      },
      "emissiveFactor": [
        0,
        0,
        0
      ],
      "alphaMode": "OPAQUE",
      "doubleSided": false
    },
    {
      "name": "1Newplan_1InfInt",
      "pbrMetallicRoughness": {
        "baseColorFactor": [
          0.196,
          0.3921,
          0.196,
          1
        ],
        "metallicFactor": 0,
        "roughnessFactor": 1
      },
      "emissiveFactor": [
        0,
        0,
        0
      ],
      "alphaMode": "OPAQUE",
      "doubleSided": false
    },
    {
      "name": "1Newplan_1Pdcel",
      "pbrMetallicRoughness": {
        "baseColorFactor": [
          0.196,
          0.3921,
          0.196,
          1
        ],
        "metallicFactor": 0,
        "roughnessFactor": 1
      },
      "emissiveFactor": [
        0,
        0,
        0
      ],
      "alphaMode": "OPAQUE",
      "doubleSided": false
    },
    {
      "name": "1Newplan_FruitR",
      "pbrMetallicRoughness": {
        "baseColorFactor": [
          0.5019,
          0,
          0.5019,
          1
        ],
        "metallicFactor": 0,
        "roughnessFactor": 1
      },
      "emissiveFactor": [
        0,
        0,
        0
      ],
      "alphaMode": "OPAQUE",
      "doubleSided": false
    }
  ],
  "meshes": [
    {
      "name": "1Newplan_1",
      "primitives": [
        {
          "attributes": {
            "POSITION": 0
          },
          "indices": 1,
          "material": 0,
          "mode": 4
        },
        {
          "attributes": {
            "POSITION": 2
          },
          "indices": 3,
          "material": 1,
          "mode": 4
        },
        {
          "attributes": {
            "POSITION": 4
          },
          "indices": 5,
          "material": 2,
          "mode": 4
        },
        {
          "attributes": {
            "POSITION": 6
          },
          "indices": 7,
          "material": 3,
          "mode": 4
        },
        {
          "attributes": {
            "POSITION": 8
          },
          "indices": 9,
          "material": 4,
          "mode": 4
        },
        {
          "attributes": {
            "POSITION": 10
          },
          "indices": 11,
          "material": 5,
          "mode": 4
        },
        {
          "attributes": {
            "POSITION": 12
          },
          "indices": 13,
          "material": 6,
          "mode": 4
        },
        {
          "attributes": {
            "POSITION": 14
          },
          "indices": 15,
          "material": 7,
          "mode": 4
        }
      ]
    }
  ],
  "nodes": [
    {
      "name": "1Newplan",
      "mesh": 0
    }
  ],
  "scene": 0,
  "scenes": [
    {
      "nodes": [
        0
      ]
    }
  ]
}
